<mxfile host="app.diagrams.net" agent="Mozilla/5.0 (Windows NT 10.0; Win64; x64) AppleWebKit/537.36 (KHTML, like Gecko) Chrome/140.0.0.0 Safari/537.36 Edg/140.0.0.0" version="28.2.1">
  <diagram id="KFqxNB28uFuRDGZRxTPO" name="ページ1">
    <mxGraphModel dx="1103" dy="520" grid="1" gridSize="10" guides="1" tooltips="1" connect="1" arrows="1" fold="1" page="1" pageScale="1" pageWidth="827" pageHeight="1169" math="0" shadow="0">
      <root>
        <mxCell id="0" />
        <mxCell id="1" parent="0" />
        <mxCell id="rEI8cVG_JMJdL8TfNj12-2" value="" style="shape=umlActor;verticalLabelPosition=bottom;verticalAlign=top;html=1;outlineConnect=0;" parent="1" vertex="1">
          <mxGeometry x="105" y="130" width="30" height="60" as="geometry" />
        </mxCell>
        <mxCell id="rEI8cVG_JMJdL8TfNj12-13" value="" style="shape=umlLifeline;perimeter=lifelinePerimeter;whiteSpace=wrap;html=1;container=1;dropTarget=0;collapsible=0;recursiveResize=0;outlineConnect=0;portConstraint=eastwest;newEdgeStyle={&quot;curved&quot;:0,&quot;rounded&quot;:0};participant=umlBoundary;fillColor=#CCFF99;" parent="1" vertex="1">
          <mxGeometry x="240" y="140" width="50" height="460" as="geometry" />
        </mxCell>
        <mxCell id="rEI8cVG_JMJdL8TfNj12-45" value="" style="html=1;points=[[0,0,0,0,5],[0,1,0,0,-5],[1,0,0,0,5],[1,1,0,0,-5]];perimeter=orthogonalPerimeter;outlineConnect=0;targetShapes=umlLifeline;portConstraint=eastwest;newEdgeStyle={&quot;curved&quot;:0,&quot;rounded&quot;:0};" parent="rEI8cVG_JMJdL8TfNj12-13" vertex="1">
          <mxGeometry x="20" y="150" width="10" height="60" as="geometry" />
        </mxCell>
        <mxCell id="rEI8cVG_JMJdL8TfNj12-51" value="" style="html=1;points=[[0,0,0,0,5],[0,1,0,0,-5],[1,0,0,0,5],[1,1,0,0,-5]];perimeter=orthogonalPerimeter;outlineConnect=0;targetShapes=umlLifeline;portConstraint=eastwest;newEdgeStyle={&quot;curved&quot;:0,&quot;rounded&quot;:0};" parent="rEI8cVG_JMJdL8TfNj12-13" vertex="1">
          <mxGeometry x="20" y="340" width="10" height="80" as="geometry" />
        </mxCell>
        <mxCell id="rEI8cVG_JMJdL8TfNj12-14" value="" style="shape=umlLifeline;perimeter=lifelinePerimeter;whiteSpace=wrap;html=1;container=1;dropTarget=0;collapsible=0;recursiveResize=0;outlineConnect=0;portConstraint=eastwest;newEdgeStyle={&quot;curved&quot;:0,&quot;rounded&quot;:0};participant=umlBoundary;fillColor=#CCFF99;" parent="1" vertex="1">
          <mxGeometry x="160" y="140" width="50" height="460" as="geometry" />
        </mxCell>
        <mxCell id="rEI8cVG_JMJdL8TfNj12-29" value="" style="html=1;points=[[0,0,0,0,5],[0,1,0,0,-5],[1,0,0,0,5],[1,1,0,0,-5]];perimeter=orthogonalPerimeter;outlineConnect=0;targetShapes=umlLifeline;portConstraint=eastwest;newEdgeStyle={&quot;curved&quot;:0,&quot;rounded&quot;:0};" parent="rEI8cVG_JMJdL8TfNj12-14" vertex="1">
          <mxGeometry x="20" y="140" width="10" height="80" as="geometry" />
        </mxCell>
        <mxCell id="rEI8cVG_JMJdL8TfNj12-16" value="" style="shape=umlLifeline;perimeter=lifelinePerimeter;whiteSpace=wrap;html=1;container=1;dropTarget=0;collapsible=0;recursiveResize=0;outlineConnect=0;portConstraint=eastwest;newEdgeStyle={&quot;curved&quot;:0,&quot;rounded&quot;:0};participant=umlControl;fillColor=#FF6666;" parent="1" vertex="1">
          <mxGeometry x="320" y="140" width="40" height="460" as="geometry" />
        </mxCell>
        <mxCell id="rEI8cVG_JMJdL8TfNj12-56" value="" style="html=1;points=[[0,0,0,0,5],[0,1,0,0,-5],[1,0,0,0,5],[1,1,0,0,-5]];perimeter=orthogonalPerimeter;outlineConnect=0;targetShapes=umlLifeline;portConstraint=eastwest;newEdgeStyle={&quot;curved&quot;:0,&quot;rounded&quot;:0};" parent="rEI8cVG_JMJdL8TfNj12-16" vertex="1">
          <mxGeometry x="15" y="350" width="10" height="50" as="geometry" />
        </mxCell>
        <mxCell id="rEI8cVG_JMJdL8TfNj12-17" value="" style="shape=umlLifeline;perimeter=lifelinePerimeter;whiteSpace=wrap;html=1;container=1;dropTarget=0;collapsible=0;recursiveResize=0;outlineConnect=0;portConstraint=eastwest;newEdgeStyle={&quot;curved&quot;:0,&quot;rounded&quot;:0};participant=umlEntity;fillColor=#66B2FF;" parent="1" vertex="1">
          <mxGeometry x="400" y="140" width="40" height="460" as="geometry" />
        </mxCell>
        <mxCell id="rEI8cVG_JMJdL8TfNj12-59" value="" style="html=1;points=[[0,0,0,0,5],[0,1,0,0,-5],[1,0,0,0,5],[1,1,0,0,-5]];perimeter=orthogonalPerimeter;outlineConnect=0;targetShapes=umlLifeline;portConstraint=eastwest;newEdgeStyle={&quot;curved&quot;:0,&quot;rounded&quot;:0};" parent="rEI8cVG_JMJdL8TfNj12-17" vertex="1">
          <mxGeometry x="14" y="360" width="10" height="50" as="geometry" />
        </mxCell>
        <mxCell id="rEI8cVG_JMJdL8TfNj12-20" value="" style="endArrow=none;dashed=1;html=1;rounded=0;" parent="1" source="rEI8cVG_JMJdL8TfNj12-49" target="rEI8cVG_JMJdL8TfNj12-23" edge="1">
          <mxGeometry width="50" height="50" relative="1" as="geometry">
            <mxPoint x="120" y="600" as="sourcePoint" />
            <mxPoint x="120" y="360" as="targetPoint" />
            <Array as="points" />
          </mxGeometry>
        </mxCell>
        <mxCell id="rEI8cVG_JMJdL8TfNj12-21" value="" style="endArrow=none;dashed=1;html=1;rounded=0;entryX=0.433;entryY=-0.038;entryDx=0;entryDy=0;entryPerimeter=0;" parent="1" source="rEI8cVG_JMJdL8TfNj12-2" target="rEI8cVG_JMJdL8TfNj12-23" edge="1">
          <mxGeometry width="50" height="50" relative="1" as="geometry">
            <mxPoint x="120" y="200" as="sourcePoint" />
            <mxPoint x="120" y="290" as="targetPoint" />
          </mxGeometry>
        </mxCell>
        <mxCell id="rEI8cVG_JMJdL8TfNj12-23" value="" style="html=1;points=[[0,0,0,0,5],[0,1,0,0,-5],[1,0,0,0,5],[1,1,0,0,-5]];perimeter=orthogonalPerimeter;outlineConnect=0;targetShapes=umlLifeline;portConstraint=eastwest;newEdgeStyle={&quot;curved&quot;:0,&quot;rounded&quot;:0};" parent="1" vertex="1">
          <mxGeometry x="115" y="260" width="10" height="120" as="geometry" />
        </mxCell>
        <mxCell id="rEI8cVG_JMJdL8TfNj12-24" value="" style="html=1;points=[[0,0,0,0,5],[0,1,0,0,-5],[1,0,0,0,5],[1,1,0,0,-5]];perimeter=orthogonalPerimeter;outlineConnect=0;targetShapes=umlLifeline;portConstraint=eastwest;newEdgeStyle={&quot;curved&quot;:0,&quot;rounded&quot;:0};" parent="1" vertex="1">
          <mxGeometry x="80" y="640" width="10" height="80" as="geometry" />
        </mxCell>
        <mxCell id="rEI8cVG_JMJdL8TfNj12-26" value="活性区間&lt;div&gt;Activation Bar&lt;/div&gt;" style="text;strokeColor=none;align=center;fillColor=none;html=1;verticalAlign=middle;whiteSpace=wrap;rounded=0;" parent="1" vertex="1">
          <mxGeometry x="110" y="655" width="90" height="50" as="geometry" />
        </mxCell>
        <mxCell id="rEI8cVG_JMJdL8TfNj12-27" value="" style="endArrow=none;dashed=1;html=1;rounded=0;" parent="1" edge="1">
          <mxGeometry width="50" height="50" relative="1" as="geometry">
            <mxPoint x="240" y="640" as="sourcePoint" />
            <mxPoint x="240" y="640" as="targetPoint" />
            <Array as="points">
              <mxPoint x="240" y="720" />
            </Array>
          </mxGeometry>
        </mxCell>
        <mxCell id="rEI8cVG_JMJdL8TfNj12-28" value="生存線&lt;div&gt;Lifo Lino&lt;/div&gt;" style="text;html=1;align=center;verticalAlign=middle;whiteSpace=wrap;rounded=0;" parent="1" vertex="1">
          <mxGeometry x="270" y="665" width="60" height="30" as="geometry" />
        </mxCell>
        <mxCell id="rEI8cVG_JMJdL8TfNj12-30" value="" style="endArrow=classic;html=1;rounded=0;" parent="1" edge="1">
          <mxGeometry width="50" height="50" relative="1" as="geometry">
            <mxPoint x="130" y="280" as="sourcePoint" />
            <mxPoint x="180" y="280" as="targetPoint" />
          </mxGeometry>
        </mxCell>
        <mxCell id="rEI8cVG_JMJdL8TfNj12-31" value="メニュー画面" style="text;html=1;align=center;verticalAlign=middle;whiteSpace=wrap;rounded=0;" parent="1" vertex="1">
          <mxGeometry x="160" y="190" width="60" height="30" as="geometry" />
        </mxCell>
        <mxCell id="rEI8cVG_JMJdL8TfNj12-32" value="学生登録画面" style="text;html=1;align=center;verticalAlign=middle;whiteSpace=wrap;rounded=0;" parent="1" vertex="1">
          <mxGeometry x="240" y="190" width="60" height="30" as="geometry" />
        </mxCell>
        <mxCell id="rEI8cVG_JMJdL8TfNj12-33" value="学生情報登録" style="text;html=1;align=center;verticalAlign=middle;whiteSpace=wrap;rounded=0;" parent="1" vertex="1">
          <mxGeometry x="310" y="190" width="60" height="30" as="geometry" />
        </mxCell>
        <mxCell id="rEI8cVG_JMJdL8TfNj12-34" value="学生オブジェクト" style="text;html=1;align=center;verticalAlign=middle;whiteSpace=wrap;rounded=0;" parent="1" vertex="1">
          <mxGeometry x="390" y="190" width="60" height="30" as="geometry" />
        </mxCell>
        <mxCell id="rEI8cVG_JMJdL8TfNj12-38" value="" style="shape=flexArrow;endArrow=classic;html=1;rounded=0;fillColor=#000000;" parent="1" edge="1">
          <mxGeometry width="50" height="50" relative="1" as="geometry">
            <mxPoint x="40" y="160" as="sourcePoint" />
            <mxPoint x="40" y="440" as="targetPoint" />
          </mxGeometry>
        </mxCell>
        <mxCell id="rEI8cVG_JMJdL8TfNj12-41" value="" style="endArrow=classic;html=1;rounded=0;" parent="1" edge="1">
          <mxGeometry width="50" height="50" relative="1" as="geometry">
            <mxPoint x="354" y="679.55" as="sourcePoint" />
            <mxPoint x="440" y="679.55" as="targetPoint" />
            <Array as="points">
              <mxPoint x="390" y="679.55" />
            </Array>
          </mxGeometry>
        </mxCell>
        <mxCell id="rEI8cVG_JMJdL8TfNj12-42" value="操作()&lt;div&gt;Method&lt;/div&gt;" style="text;html=1;align=center;verticalAlign=middle;whiteSpace=wrap;rounded=0;" parent="1" vertex="1">
          <mxGeometry x="360" y="630" width="60" height="30" as="geometry" />
        </mxCell>
        <mxCell id="rEI8cVG_JMJdL8TfNj12-43" value="メッセージ&lt;div&gt;Message&lt;/div&gt;" style="text;html=1;align=center;verticalAlign=middle;whiteSpace=wrap;rounded=0;" parent="1" vertex="1">
          <mxGeometry x="440" y="630" width="70" height="30" as="geometry" />
        </mxCell>
        <mxCell id="rEI8cVG_JMJdL8TfNj12-44" value="学生登録を選択()" style="text;html=1;align=center;verticalAlign=middle;whiteSpace=wrap;rounded=0;" parent="1" vertex="1">
          <mxGeometry x="125" y="240" width="60" height="30" as="geometry" />
        </mxCell>
        <mxCell id="rEI8cVG_JMJdL8TfNj12-47" value="" style="endArrow=classic;html=1;rounded=0;" parent="1" source="rEI8cVG_JMJdL8TfNj12-29" edge="1">
          <mxGeometry width="50" height="50" relative="1" as="geometry">
            <mxPoint x="200" y="290" as="sourcePoint" />
            <mxPoint x="260" y="290" as="targetPoint" />
          </mxGeometry>
        </mxCell>
        <mxCell id="rEI8cVG_JMJdL8TfNj12-48" value="表示()" style="text;html=1;align=center;verticalAlign=middle;whiteSpace=wrap;rounded=0;" parent="1" vertex="1">
          <mxGeometry x="200" y="250" width="60" height="30" as="geometry" />
        </mxCell>
        <mxCell id="rEI8cVG_JMJdL8TfNj12-50" value="" style="endArrow=none;dashed=1;html=1;rounded=0;" parent="1" target="rEI8cVG_JMJdL8TfNj12-49" edge="1">
          <mxGeometry width="50" height="50" relative="1" as="geometry">
            <mxPoint x="120" y="600" as="sourcePoint" />
            <mxPoint x="120" y="380" as="targetPoint" />
            <Array as="points">
              <mxPoint x="120" y="390" />
            </Array>
          </mxGeometry>
        </mxCell>
        <mxCell id="rEI8cVG_JMJdL8TfNj12-49" value="" style="html=1;points=[[0,0,0,0,5],[0,1,0,0,-5],[1,0,0,0,5],[1,1,0,0,-5]];perimeter=orthogonalPerimeter;outlineConnect=0;targetShapes=umlLifeline;portConstraint=eastwest;newEdgeStyle={&quot;curved&quot;:0,&quot;rounded&quot;:0};" parent="1" vertex="1">
          <mxGeometry x="115" y="460" width="10" height="120" as="geometry" />
        </mxCell>
        <mxCell id="rEI8cVG_JMJdL8TfNj12-52" value="" style="endArrow=classic;html=1;rounded=0;" parent="1" source="rEI8cVG_JMJdL8TfNj12-49" edge="1">
          <mxGeometry width="50" height="50" relative="1" as="geometry">
            <mxPoint x="130" y="480" as="sourcePoint" />
            <mxPoint x="260" y="480" as="targetPoint" />
          </mxGeometry>
        </mxCell>
        <mxCell id="rEI8cVG_JMJdL8TfNj12-53" value="学生データ入力()" style="text;html=1;align=center;verticalAlign=middle;whiteSpace=wrap;rounded=0;" parent="1" vertex="1">
          <mxGeometry x="125" y="440" width="60" height="30" as="geometry" />
        </mxCell>
        <mxCell id="rEI8cVG_JMJdL8TfNj12-57" value="" style="endArrow=classic;html=1;rounded=0;" parent="1" target="rEI8cVG_JMJdL8TfNj12-56" edge="1">
          <mxGeometry width="50" height="50" relative="1" as="geometry">
            <mxPoint x="270" y="490" as="sourcePoint" />
            <mxPoint x="330" y="490" as="targetPoint" />
            <Array as="points">
              <mxPoint x="310" y="490" />
            </Array>
          </mxGeometry>
        </mxCell>
        <mxCell id="rEI8cVG_JMJdL8TfNj12-58" value="起動()" style="text;html=1;align=center;verticalAlign=middle;whiteSpace=wrap;rounded=0;" parent="1" vertex="1">
          <mxGeometry x="270" y="450" width="60" height="30" as="geometry" />
        </mxCell>
        <mxCell id="rEI8cVG_JMJdL8TfNj12-60" value="" style="endArrow=classic;html=1;rounded=0;" parent="1" source="rEI8cVG_JMJdL8TfNj12-56" target="rEI8cVG_JMJdL8TfNj12-59" edge="1">
          <mxGeometry width="50" height="50" relative="1" as="geometry">
            <mxPoint x="350" y="500" as="sourcePoint" />
            <mxPoint x="420.0000000000001" y="500" as="targetPoint" />
            <Array as="points">
              <mxPoint x="390.5" y="500" />
            </Array>
          </mxGeometry>
        </mxCell>
        <mxCell id="rEI8cVG_JMJdL8TfNj12-61" value="学生データ登録()" style="text;html=1;align=center;verticalAlign=middle;whiteSpace=wrap;rounded=0;" parent="1" vertex="1">
          <mxGeometry x="350" y="460" width="60" height="30" as="geometry" />
        </mxCell>
        <mxCell id="rEI8cVG_JMJdL8TfNj12-62" value="&lt;b&gt;時間の流れ&lt;/b&gt;" style="text;html=1;align=center;verticalAlign=middle;whiteSpace=wrap;rounded=0;" parent="1" vertex="1">
          <mxGeometry x="10" y="440" width="70" height="40" as="geometry" />
        </mxCell>
      </root>
    </mxGraphModel>
  </diagram>
</mxfile>
